<svg id="eTGPmEv6kRW1" xmlns="http://www.w3.org/2000/svg" xmlns:xlink="http://www.w3.org/1999/xlink" viewBox="0 0 300 300" shape-rendering="geometricPrecision" text-rendering="geometricPrecision"><rect width="300" height="70" rx="0" ry="0" transform="matrix(1.005033 0 0 1.011557-.75495-.433388)" fill="#d2dbed" stroke-width="0"/><rect width="70" height="230" rx="0" ry="0" transform="matrix(1.005033 0 0 1.011557 229.811263 68.670945)" fill="#d2dbed" stroke-width="0"/><rect width="70" height="230" rx="0" ry="0" transform="matrix(1.005033 0 0 1.011557-.188738 68.670945)" fill="#d2dbed" stroke-width="0"/><rect width="155" height="75" rx="0" ry="0" transform="matrix(1.005033 0 0 1.011557 69.609942 224.566613)" fill="#d2dbed" stroke-width="0"/><rect width="70" height="75" rx="0" ry="0" transform="matrix(1.005033 0 0 1.011557 154.811263 149.566613)" fill="#d2dbed" stroke-width="0"/><rect width="80" height="70" rx="0" ry="0" transform="matrix(1.005033 0 0 1.011557 74.79868 149.566613)" fill="#d2dbed" stroke-width="0"/><rect width="70" height="75" rx="0" ry="0" transform="matrix(1.005033 0 0 1.011557 74.811263 74.566612)" fill="#d2dbed" stroke-width="0"/><rect width="80" height="70" rx="0" ry="0" transform="matrix(1.005033 0 0 1.011557 144.79868 74.566612)" fill="#d2dbed" stroke-width="0"/></svg>
